<mxfile host="app.diagrams.net" modified="2022-07-26T11:50:15.336Z" agent="5.0 (Macintosh; Intel Mac OS X 10_15_7) AppleWebKit/537.36 (KHTML, like Gecko) Chrome/103.0.0.0 Safari/537.36" etag="ZEqJWPjZq1AmObUN7l4I" version="20.1.4" type="github">
  <diagram id="Mn_K4a2z4ukTfb5vrJ7c" name="Page-1">
    <mxGraphModel dx="2884" dy="1377" grid="0" gridSize="10" guides="1" tooltips="1" connect="1" arrows="1" fold="1" page="1" pageScale="1" pageWidth="827" pageHeight="1169" math="0" shadow="0">
      <root>
        <mxCell id="0" />
        <mxCell id="1" parent="0" />
        <mxCell id="U4_eQ8hXQtfQl60y-uZD-1" value="" style="rounded=0;whiteSpace=wrap;html=1;fillColor=#dae8fc;strokeColor=#6C8EBF;gradientColor=none;glass=0;shadow=0;sketch=1;" parent="1" vertex="1">
          <mxGeometry x="-10" y="140" width="270" height="330" as="geometry" />
        </mxCell>
        <mxCell id="U4_eQ8hXQtfQl60y-uZD-2" value="" style="endArrow=none;dashed=1;html=1;rounded=0;" parent="1" edge="1">
          <mxGeometry width="50" height="50" relative="1" as="geometry">
            <mxPoint x="-50" y="90" as="sourcePoint" />
            <mxPoint x="1152" y="100" as="targetPoint" />
          </mxGeometry>
        </mxCell>
        <mxCell id="U4_eQ8hXQtfQl60y-uZD-6" value="&lt;span style=&quot;color: rgb(0, 0, 0); font-family: Helvetica; font-style: normal; font-variant-ligatures: normal; font-variant-caps: normal; font-weight: 400; letter-spacing: normal; orphans: 2; text-align: center; text-indent: 0px; text-transform: none; widows: 2; word-spacing: 0px; -webkit-text-stroke-width: 0px; background-color: rgb(248, 249, 250); text-decoration-thickness: initial; text-decoration-style: initial; text-decoration-color: initial; float: none; display: inline !important;&quot;&gt;&lt;font style=&quot;font-size: 15px;&quot;&gt;热门直播&lt;/font&gt;&lt;/span&gt;" style="text;whiteSpace=wrap;html=1;" parent="1" vertex="1">
          <mxGeometry x="-20" y="100" width="80" height="40" as="geometry" />
        </mxCell>
        <mxCell id="U4_eQ8hXQtfQl60y-uZD-7" value="&lt;span style=&quot;font-size: 15px; text-align: center;&quot;&gt;直播详情&lt;/span&gt;" style="text;whiteSpace=wrap;html=1;" parent="1" vertex="1">
          <mxGeometry x="-20" y="500" width="80" height="40" as="geometry" />
        </mxCell>
        <mxCell id="U4_eQ8hXQtfQl60y-uZD-8" value="&lt;span style=&quot;color: rgb(0, 0, 0); font-family: Helvetica; font-style: normal; font-variant-ligatures: normal; font-variant-caps: normal; font-weight: 400; letter-spacing: normal; orphans: 2; text-align: center; text-indent: 0px; text-transform: none; widows: 2; word-spacing: 0px; -webkit-text-stroke-width: 0px; background-color: rgb(248, 249, 250); text-decoration-thickness: initial; text-decoration-style: initial; text-decoration-color: initial; float: none; display: inline !important;&quot;&gt;&lt;font style=&quot;font-size: 15px;&quot;&gt;页面&lt;/font&gt;&lt;/span&gt;" style="text;whiteSpace=wrap;html=1;" parent="1" vertex="1">
          <mxGeometry x="-30" y="40" width="80" height="40" as="geometry" />
        </mxCell>
        <mxCell id="U4_eQ8hXQtfQl60y-uZD-9" value="&lt;span style=&quot;color: rgb(0, 0, 0); font-family: Helvetica; font-style: normal; font-variant-ligatures: normal; font-variant-caps: normal; font-weight: 400; letter-spacing: normal; orphans: 2; text-align: center; text-indent: 0px; text-transform: none; widows: 2; word-spacing: 0px; -webkit-text-stroke-width: 0px; background-color: rgb(248, 249, 250); text-decoration-thickness: initial; text-decoration-style: initial; text-decoration-color: initial; float: none; display: inline !important;&quot;&gt;&lt;font style=&quot;font-size: 15px;&quot;&gt;子组件&lt;/font&gt;&lt;/span&gt;" style="text;whiteSpace=wrap;html=1;" parent="1" vertex="1">
          <mxGeometry x="290" y="40" width="80" height="40" as="geometry" />
        </mxCell>
        <mxCell id="U4_eQ8hXQtfQl60y-uZD-10" value="&lt;span style=&quot;color: rgb(0, 0, 0); font-family: Helvetica; font-style: normal; font-variant-ligatures: normal; font-variant-caps: normal; font-weight: 400; letter-spacing: normal; orphans: 2; text-align: center; text-indent: 0px; text-transform: none; widows: 2; word-spacing: 0px; -webkit-text-stroke-width: 0px; background-color: rgb(248, 249, 250); text-decoration-thickness: initial; text-decoration-style: initial; text-decoration-color: initial; float: none; display: inline !important;&quot;&gt;&lt;font style=&quot;font-size: 15px;&quot;&gt;公共组件&lt;/font&gt;&lt;/span&gt;" style="text;whiteSpace=wrap;html=1;" parent="1" vertex="1">
          <mxGeometry x="790" y="40" width="80" height="40" as="geometry" />
        </mxCell>
        <mxCell id="U4_eQ8hXQtfQl60y-uZD-11" value="" style="endArrow=none;dashed=1;html=1;rounded=0;" parent="1" edge="1">
          <mxGeometry width="50" height="50" relative="1" as="geometry">
            <mxPoint x="280" as="sourcePoint" />
            <mxPoint x="280" y="980" as="targetPoint" />
          </mxGeometry>
        </mxCell>
        <mxCell id="U4_eQ8hXQtfQl60y-uZD-12" value="" style="endArrow=none;dashed=1;html=1;rounded=0;" parent="1" edge="1">
          <mxGeometry width="50" height="50" relative="1" as="geometry">
            <mxPoint x="780" as="sourcePoint" />
            <mxPoint x="780" y="970" as="targetPoint" />
          </mxGeometry>
        </mxCell>
        <mxCell id="U4_eQ8hXQtfQl60y-uZD-13" value="type-select" style="rounded=0;whiteSpace=wrap;html=1;shadow=0;glass=0;sketch=1;fontSize=15;" parent="1" vertex="1">
          <mxGeometry x="10" y="160" width="220" height="40" as="geometry" />
        </mxCell>
        <mxCell id="U4_eQ8hXQtfQl60y-uZD-14" value="time-select" style="rounded=0;whiteSpace=wrap;html=1;shadow=0;glass=0;sketch=1;fontSize=15;" parent="1" vertex="1">
          <mxGeometry x="10" y="210" width="220" height="40" as="geometry" />
        </mxCell>
        <mxCell id="U4_eQ8hXQtfQl60y-uZD-15" value="" style="rounded=0;whiteSpace=wrap;html=1;shadow=0;glass=0;sketch=1;fontSize=15;" parent="1" vertex="1">
          <mxGeometry x="10" y="260" width="220" height="190" as="geometry" />
        </mxCell>
        <mxCell id="U4_eQ8hXQtfQl60y-uZD-16" value="&lt;span style=&quot;color: rgb(0, 0, 0); font-family: Helvetica; font-size: 15px; font-style: normal; font-variant-ligatures: normal; font-variant-caps: normal; font-weight: 400; letter-spacing: normal; orphans: 2; text-align: center; text-indent: 0px; text-transform: none; widows: 2; word-spacing: 0px; -webkit-text-stroke-width: 0px; background-color: rgb(248, 249, 250); text-decoration-thickness: initial; text-decoration-style: initial; text-decoration-color: initial; float: none; display: inline !important;&quot;&gt;list&lt;/span&gt;" style="text;whiteSpace=wrap;html=1;fontSize=15;" parent="1" vertex="1">
          <mxGeometry x="18" y="260" width="110" height="30" as="geometry" />
        </mxCell>
        <mxCell id="U4_eQ8hXQtfQl60y-uZD-17" value="video-item-card" style="rounded=0;whiteSpace=wrap;html=1;shadow=0;glass=0;sketch=1;fontSize=15;" parent="1" vertex="1">
          <mxGeometry x="30" y="343" width="180" height="40" as="geometry" />
        </mxCell>
        <mxCell id="U4_eQ8hXQtfQl60y-uZD-18" value="video-item-card" style="rounded=0;whiteSpace=wrap;html=1;shadow=0;glass=0;sketch=1;fontSize=15;" parent="1" vertex="1">
          <mxGeometry x="30" y="296" width="180" height="40" as="geometry" />
        </mxCell>
        <mxCell id="U4_eQ8hXQtfQl60y-uZD-19" value="" style="endArrow=none;dashed=1;html=1;dashPattern=1 3;strokeWidth=3;rounded=0;fontSize=15;" parent="1" edge="1">
          <mxGeometry width="50" height="50" relative="1" as="geometry">
            <mxPoint x="113" y="430" as="sourcePoint" />
            <mxPoint x="112.5" y="400" as="targetPoint" />
          </mxGeometry>
        </mxCell>
        <mxCell id="U4_eQ8hXQtfQl60y-uZD-20" value="" style="rounded=0;whiteSpace=wrap;html=1;fillColor=#dae8fc;strokeColor=#6C8EBF;gradientColor=none;glass=0;shadow=0;sketch=1;" parent="1" vertex="1">
          <mxGeometry x="290" y="140" width="450" height="190" as="geometry" />
        </mxCell>
        <mxCell id="U4_eQ8hXQtfQl60y-uZD-21" value="&lt;meta charset=&quot;utf-8&quot;&gt;&lt;span style=&quot;color: rgb(0, 0, 0); font-family: Helvetica; font-size: 15px; font-style: normal; font-variant-ligatures: normal; font-variant-caps: normal; font-weight: 400; letter-spacing: normal; orphans: 2; text-align: center; text-indent: 0px; text-transform: none; widows: 2; word-spacing: 0px; -webkit-text-stroke-width: 0px; background-color: rgb(248, 249, 250); text-decoration-thickness: initial; text-decoration-style: initial; text-decoration-color: initial; float: none; display: inline !important;&quot;&gt;video-item-card&lt;/span&gt;" style="text;whiteSpace=wrap;html=1;fontSize=15;" parent="1" vertex="1">
          <mxGeometry x="300" y="140" width="140" height="40" as="geometry" />
        </mxCell>
        <mxCell id="U4_eQ8hXQtfQl60y-uZD-22" value="直播图片" style="rounded=0;whiteSpace=wrap;html=1;shadow=0;glass=0;sketch=1;fontSize=15;strokeColor=#6C8EBF;gradientColor=none;" parent="1" vertex="1">
          <mxGeometry x="300" y="180" width="80" height="130" as="geometry" />
        </mxCell>
        <mxCell id="U4_eQ8hXQtfQl60y-uZD-23" value="直播信息" style="rounded=0;whiteSpace=wrap;html=1;shadow=0;glass=0;sketch=1;fontSize=15;strokeColor=#6C8EBF;gradientColor=none;" parent="1" vertex="1">
          <mxGeometry x="400" y="180" width="80" height="40" as="geometry" />
        </mxCell>
        <mxCell id="U4_eQ8hXQtfQl60y-uZD-24" value="商品信息" style="rounded=0;whiteSpace=wrap;html=1;shadow=0;glass=0;sketch=1;fontSize=15;strokeColor=#6C8EBF;gradientColor=none;" parent="1" vertex="1">
          <mxGeometry x="400" y="270" width="80" height="40" as="geometry" />
        </mxCell>
        <mxCell id="U4_eQ8hXQtfQl60y-uZD-25" value="直播数据" style="rounded=0;whiteSpace=wrap;html=1;shadow=0;glass=0;sketch=1;fontSize=15;strokeColor=#6C8EBF;gradientColor=none;" parent="1" vertex="1">
          <mxGeometry x="502" y="180" width="220" height="130" as="geometry" />
        </mxCell>
        <mxCell id="U4_eQ8hXQtfQl60y-uZD-26" value="作者信息" style="rounded=0;whiteSpace=wrap;html=1;shadow=0;glass=0;sketch=1;fontSize=15;strokeColor=#6C8EBF;gradientColor=none;" parent="1" vertex="1">
          <mxGeometry x="400" y="225" width="80" height="40" as="geometry" />
        </mxCell>
        <mxCell id="U4_eQ8hXQtfQl60y-uZD-27" value="" style="rounded=0;whiteSpace=wrap;html=1;fillColor=#dae8fc;strokeColor=#6C8EBF;gradientColor=none;glass=0;shadow=0;sketch=1;" parent="1" vertex="1">
          <mxGeometry x="290" y="350" width="450" height="120" as="geometry" />
        </mxCell>
        <mxCell id="U4_eQ8hXQtfQl60y-uZD-28" value="&lt;meta charset=&quot;utf-8&quot;&gt;&lt;span style=&quot;color: rgb(0, 0, 0); font-family: Helvetica; font-size: 15px; font-style: normal; font-variant-ligatures: normal; font-variant-caps: normal; font-weight: 400; letter-spacing: normal; orphans: 2; text-align: center; text-indent: 0px; text-transform: none; widows: 2; word-spacing: 0px; -webkit-text-stroke-width: 0px; background-color: rgb(248, 249, 250); text-decoration-thickness: initial; text-decoration-style: initial; text-decoration-color: initial; float: none; display: inline !important;&quot;&gt;商品信息&lt;/span&gt;" style="text;whiteSpace=wrap;html=1;fontSize=15;" parent="1" vertex="1">
          <mxGeometry x="295" y="360" width="90" height="40" as="geometry" />
        </mxCell>
        <mxCell id="U4_eQ8hXQtfQl60y-uZD-29" value="商品图片" style="rounded=0;whiteSpace=wrap;html=1;shadow=0;glass=0;sketch=1;fontSize=15;strokeColor=#6C8EBF;gradientColor=none;" parent="1" vertex="1">
          <mxGeometry x="305" y="400" width="80" height="40" as="geometry" />
        </mxCell>
        <mxCell id="U4_eQ8hXQtfQl60y-uZD-30" value="商品名称" style="rounded=0;whiteSpace=wrap;html=1;shadow=0;glass=0;sketch=1;fontSize=15;strokeColor=#6C8EBF;gradientColor=none;" parent="1" vertex="1">
          <mxGeometry x="400" y="400" width="80" height="40" as="geometry" />
        </mxCell>
        <mxCell id="U4_eQ8hXQtfQl60y-uZD-31" value="更多商品" style="rounded=0;whiteSpace=wrap;html=1;shadow=0;glass=0;sketch=1;fontSize=15;strokeColor=#6C8EBF;gradientColor=none;" parent="1" vertex="1">
          <mxGeometry x="494" y="400" width="80" height="40" as="geometry" />
        </mxCell>
        <mxCell id="U4_eQ8hXQtfQl60y-uZD-33" value="" style="rounded=0;whiteSpace=wrap;html=1;fillColor=#dae8fc;strokeColor=#6C8EBF;gradientColor=none;glass=0;shadow=0;sketch=1;" parent="1" vertex="1">
          <mxGeometry x="-10" y="544" width="270" height="416" as="geometry" />
        </mxCell>
        <mxCell id="U4_eQ8hXQtfQl60y-uZD-34" value="直播详细信息" style="rounded=0;whiteSpace=wrap;html=1;shadow=0;glass=0;sketch=1;fontSize=15;strokeColor=#6C8EBF;gradientColor=none;" parent="1" vertex="1">
          <mxGeometry y="569" width="110" height="361" as="geometry" />
        </mxCell>
        <mxCell id="U4_eQ8hXQtfQl60y-uZD-35" value="直播视频展示" style="rounded=0;whiteSpace=wrap;html=1;shadow=0;glass=0;sketch=1;fontSize=15;strokeColor=#6C8EBF;gradientColor=none;" parent="1" vertex="1">
          <mxGeometry x="140" y="569" width="110" height="361" as="geometry" />
        </mxCell>
        <mxCell id="U4_eQ8hXQtfQl60y-uZD-36" value="" style="rounded=0;whiteSpace=wrap;html=1;fillColor=#dae8fc;strokeColor=#6C8EBF;gradientColor=none;glass=0;shadow=0;sketch=1;" parent="1" vertex="1">
          <mxGeometry x="290" y="544" width="250" height="276" as="geometry" />
        </mxCell>
        <mxCell id="U4_eQ8hXQtfQl60y-uZD-37" value="&lt;meta charset=&quot;utf-8&quot;&gt;&lt;span style=&quot;color: rgb(0, 0, 0); font-family: Helvetica; font-size: 15px; font-style: normal; font-variant-ligatures: normal; font-variant-caps: normal; font-weight: 400; letter-spacing: normal; orphans: 2; text-align: center; text-indent: 0px; text-transform: none; widows: 2; word-spacing: 0px; -webkit-text-stroke-width: 0px; background-color: rgb(248, 249, 250); text-decoration-thickness: initial; text-decoration-style: initial; text-decoration-color: initial; float: none; display: inline !important;&quot;&gt;直播详细信息&lt;/span&gt;" style="text;whiteSpace=wrap;html=1;fontSize=15;" parent="1" vertex="1">
          <mxGeometry x="294" y="550" width="120" height="40" as="geometry" />
        </mxCell>
        <mxCell id="U4_eQ8hXQtfQl60y-uZD-38" value="直播信息" style="rounded=0;whiteSpace=wrap;html=1;shadow=0;glass=0;sketch=1;fontSize=15;strokeColor=#6C8EBF;gradientColor=none;" parent="1" vertex="1">
          <mxGeometry x="305" y="585" width="80" height="40" as="geometry" />
        </mxCell>
        <mxCell id="U4_eQ8hXQtfQl60y-uZD-39" value="作者信息" style="rounded=0;whiteSpace=wrap;html=1;shadow=0;glass=0;sketch=1;fontSize=15;strokeColor=#6C8EBF;gradientColor=none;" parent="1" vertex="1">
          <mxGeometry x="440" y="585" width="80" height="40" as="geometry" />
        </mxCell>
        <mxCell id="U4_eQ8hXQtfQl60y-uZD-40" value="直播数据" style="rounded=0;whiteSpace=wrap;html=1;shadow=0;glass=0;sketch=1;fontSize=15;strokeColor=#6C8EBF;gradientColor=none;" parent="1" vertex="1">
          <mxGeometry x="305" y="640" width="215" height="40" as="geometry" />
        </mxCell>
        <mxCell id="U4_eQ8hXQtfQl60y-uZD-41" value="直播商品筛选项" style="rounded=0;whiteSpace=wrap;html=1;shadow=0;glass=0;sketch=1;fontSize=15;strokeColor=#6C8EBF;gradientColor=none;" parent="1" vertex="1">
          <mxGeometry x="306" y="700" width="215" height="40" as="geometry" />
        </mxCell>
        <mxCell id="U4_eQ8hXQtfQl60y-uZD-42" value="直播商品列表" style="rounded=0;whiteSpace=wrap;html=1;shadow=0;glass=0;sketch=1;fontSize=15;strokeColor=#6C8EBF;gradientColor=none;" parent="1" vertex="1">
          <mxGeometry x="306" y="760" width="215" height="40" as="geometry" />
        </mxCell>
        <mxCell id="U4_eQ8hXQtfQl60y-uZD-43" value="" style="rounded=0;whiteSpace=wrap;html=1;fillColor=#dae8fc;strokeColor=#6C8EBF;gradientColor=none;glass=0;shadow=0;sketch=1;" parent="1" vertex="1">
          <mxGeometry x="560" y="544" width="200" height="276" as="geometry" />
        </mxCell>
        <mxCell id="U4_eQ8hXQtfQl60y-uZD-45" value="&lt;meta charset=&quot;utf-8&quot;&gt;&lt;span style=&quot;color: rgb(0, 0, 0); font-family: Helvetica; font-size: 15px; font-style: normal; font-variant-ligatures: normal; font-variant-caps: normal; font-weight: 400; letter-spacing: normal; orphans: 2; text-align: center; text-indent: 0px; text-transform: none; widows: 2; word-spacing: 0px; -webkit-text-stroke-width: 0px; background-color: rgb(248, 249, 250); text-decoration-thickness: initial; text-decoration-style: initial; text-decoration-color: initial; float: none; display: inline !important;&quot;&gt;直播视频展示&lt;/span&gt;" style="text;whiteSpace=wrap;html=1;fontSize=15;" parent="1" vertex="1">
          <mxGeometry x="565" y="550" width="120" height="40" as="geometry" />
        </mxCell>
        <mxCell id="U4_eQ8hXQtfQl60y-uZD-46" value="播放视频" style="rounded=0;whiteSpace=wrap;html=1;shadow=0;glass=0;sketch=1;fontSize=15;strokeColor=#6C8EBF;gradientColor=none;" parent="1" vertex="1">
          <mxGeometry x="590" y="614" width="140" height="146" as="geometry" />
        </mxCell>
        <mxCell id="U4_eQ8hXQtfQl60y-uZD-47" value="" style="rounded=0;whiteSpace=wrap;html=1;fillColor=#dae8fc;strokeColor=#6C8EBF;gradientColor=none;glass=0;shadow=0;sketch=1;" parent="1" vertex="1">
          <mxGeometry x="290" y="850" width="250" height="110" as="geometry" />
        </mxCell>
        <mxCell id="U4_eQ8hXQtfQl60y-uZD-48" value="&lt;meta charset=&quot;utf-8&quot;&gt;&lt;span style=&quot;color: rgb(0, 0, 0); font-family: Helvetica; font-size: 15px; font-style: normal; font-variant-ligatures: normal; font-variant-caps: normal; font-weight: 400; letter-spacing: normal; orphans: 2; text-align: center; text-indent: 0px; text-transform: none; widows: 2; word-spacing: 0px; -webkit-text-stroke-width: 0px; background-color: rgb(248, 249, 250); text-decoration-thickness: initial; text-decoration-style: initial; text-decoration-color: initial; float: none; display: inline !important;&quot;&gt;直播商品列表&lt;/span&gt;" style="text;whiteSpace=wrap;html=1;fontSize=15;" parent="1" vertex="1">
          <mxGeometry x="294" y="860" width="120" height="40" as="geometry" />
        </mxCell>
        <mxCell id="U4_eQ8hXQtfQl60y-uZD-49" value="商品图片" style="rounded=0;whiteSpace=wrap;html=1;shadow=0;glass=0;sketch=1;fontSize=15;strokeColor=#6C8EBF;gradientColor=none;" parent="1" vertex="1">
          <mxGeometry x="305" y="900" width="65" height="40" as="geometry" />
        </mxCell>
        <mxCell id="U4_eQ8hXQtfQl60y-uZD-50" value="商品名称" style="rounded=0;whiteSpace=wrap;html=1;shadow=0;glass=0;sketch=1;fontSize=15;strokeColor=#6C8EBF;gradientColor=none;" parent="1" vertex="1">
          <mxGeometry x="380" y="900" width="65" height="40" as="geometry" />
        </mxCell>
        <mxCell id="U4_eQ8hXQtfQl60y-uZD-51" value="商品数据" style="rounded=0;whiteSpace=wrap;html=1;shadow=0;glass=0;sketch=1;fontSize=15;strokeColor=#6C8EBF;gradientColor=none;" parent="1" vertex="1">
          <mxGeometry x="456" y="900" width="65" height="40" as="geometry" />
        </mxCell>
        <mxCell id="U4_eQ8hXQtfQl60y-uZD-52" value="直播信息" style="rounded=0;whiteSpace=wrap;html=1;shadow=0;glass=0;sketch=1;fontSize=15;strokeColor=#6c8ebf;fillColor=#dae8fc;" parent="1" vertex="1">
          <mxGeometry x="859" y="414" width="200" height="140" as="geometry" />
        </mxCell>
        <mxCell id="WP6hprnHiG_sowA_D06u-1" value="拿到相应，进行开关设置" style="rounded=1;whiteSpace=wrap;html=1;absoluteArcSize=1;arcSize=14;strokeWidth=2;" vertex="1" parent="1">
          <mxGeometry x="1543" y="625.5" width="100" height="51" as="geometry" />
        </mxCell>
        <mxCell id="WP6hprnHiG_sowA_D06u-3" value="" style="strokeWidth=2;html=1;shape=mxgraph.flowchart.annotation_2;align=left;labelPosition=right;pointerEvents=1;" vertex="1" parent="1">
          <mxGeometry x="1653" y="581" width="50" height="147" as="geometry" />
        </mxCell>
        <mxCell id="WP6hprnHiG_sowA_D06u-4" value="直播中：不允许对开关进行设置" style="rounded=1;whiteSpace=wrap;html=1;absoluteArcSize=1;arcSize=14;strokeWidth=2;" vertex="1" parent="1">
          <mxGeometry x="1718" y="625.5" width="100" height="51" as="geometry" />
        </mxCell>
        <mxCell id="WP6hprnHiG_sowA_D06u-5" value="直播结束：原先设置失效，变成默认设置项" style="rounded=1;whiteSpace=wrap;html=1;absoluteArcSize=1;arcSize=14;strokeWidth=2;" vertex="1" parent="1">
          <mxGeometry x="1718" y="698" width="100" height="51" as="geometry" />
        </mxCell>
        <mxCell id="WP6hprnHiG_sowA_D06u-6" value="开关关闭" style="rounded=1;whiteSpace=wrap;html=1;absoluteArcSize=1;arcSize=14;strokeWidth=2;" vertex="1" parent="1">
          <mxGeometry x="1891" y="500" width="100" height="51" as="geometry" />
        </mxCell>
        <mxCell id="WP6hprnHiG_sowA_D06u-7" value="开关开启：展示可选择的tab项和默认选中项" style="rounded=1;whiteSpace=wrap;html=1;absoluteArcSize=1;arcSize=14;strokeWidth=2;" vertex="1" parent="1">
          <mxGeometry x="1894" y="602" width="100" height="51" as="geometry" />
        </mxCell>
        <mxCell id="WP6hprnHiG_sowA_D06u-8" value="非直播状态：可以对开关状态进行修改" style="rounded=1;whiteSpace=wrap;html=1;absoluteArcSize=1;arcSize=14;strokeWidth=2;" vertex="1" parent="1">
          <mxGeometry x="1715" y="551" width="100" height="51" as="geometry" />
        </mxCell>
        <mxCell id="WP6hprnHiG_sowA_D06u-9" value="" style="strokeWidth=2;html=1;shape=mxgraph.flowchart.annotation_2;align=left;labelPosition=right;pointerEvents=1;" vertex="1" parent="1">
          <mxGeometry x="1827" y="525.5" width="50" height="100" as="geometry" />
        </mxCell>
        <mxCell id="WP6hprnHiG_sowA_D06u-11" value="判断有无“品牌经营入口”展示权限" style="rounded=1;whiteSpace=wrap;html=1;absoluteArcSize=1;arcSize=14;strokeWidth=2;" vertex="1" parent="1">
          <mxGeometry x="1141.5" y="702.5" width="100" height="51" as="geometry" />
        </mxCell>
        <mxCell id="WP6hprnHiG_sowA_D06u-12" value="" style="strokeWidth=2;html=1;shape=mxgraph.flowchart.annotation_2;align=left;labelPosition=right;pointerEvents=1;" vertex="1" parent="1">
          <mxGeometry x="1251.5" y="658" width="50" height="147" as="geometry" />
        </mxCell>
        <mxCell id="WP6hprnHiG_sowA_D06u-14" value="&lt;div&gt;服务端返回的liveShopEntranceConf为空&lt;/div&gt;" style="rounded=1;whiteSpace=wrap;html=1;absoluteArcSize=1;arcSize=14;strokeWidth=2;" vertex="1" parent="1">
          <mxGeometry x="1316.5" y="775" width="171.5" height="51" as="geometry" />
        </mxCell>
        <mxCell id="WP6hprnHiG_sowA_D06u-17" value="服务端返回的liveShopEntranceConf包括默认选中的tab（为0表示开关关闭）和商家已有的tab项列表" style="rounded=1;whiteSpace=wrap;html=1;absoluteArcSize=1;arcSize=14;strokeWidth=2;" vertex="1" parent="1">
          <mxGeometry x="1315.5" y="621" width="173.5" height="66" as="geometry" />
        </mxCell>
        <mxCell id="WP6hprnHiG_sowA_D06u-19" value="Yes" style="rounded=0;whiteSpace=wrap;html=1;strokeWidth=0;strokeColor=none;" vertex="1" parent="1">
          <mxGeometry x="1258" y="627" width="52" height="30" as="geometry" />
        </mxCell>
        <mxCell id="WP6hprnHiG_sowA_D06u-20" value="No" style="rounded=0;whiteSpace=wrap;html=1;strokeWidth=0;strokeColor=none;" vertex="1" parent="1">
          <mxGeometry x="1258" y="806" width="52" height="30" as="geometry" />
        </mxCell>
        <mxCell id="WP6hprnHiG_sowA_D06u-21" value="" style="endArrow=classic;html=1;rounded=0;" edge="1" parent="1">
          <mxGeometry width="50" height="50" relative="1" as="geometry">
            <mxPoint x="1489" y="657" as="sourcePoint" />
            <mxPoint x="1540" y="657" as="targetPoint" />
          </mxGeometry>
        </mxCell>
        <mxCell id="WP6hprnHiG_sowA_D06u-28" value="根据【强制七无】字段进行判断" style="rounded=1;whiteSpace=wrap;html=1;absoluteArcSize=1;arcSize=14;strokeWidth=2;" vertex="1" parent="1">
          <mxGeometry x="1140.5" y="949.5" width="100" height="51" as="geometry" />
        </mxCell>
        <mxCell id="WP6hprnHiG_sowA_D06u-29" value="" style="strokeWidth=2;html=1;shape=mxgraph.flowchart.annotation_2;align=left;labelPosition=right;pointerEvents=1;" vertex="1" parent="1">
          <mxGeometry x="1250.5" y="905" width="50" height="147" as="geometry" />
        </mxCell>
        <mxCell id="WP6hprnHiG_sowA_D06u-30" value="保留原有的逻辑" style="rounded=1;whiteSpace=wrap;html=1;absoluteArcSize=1;arcSize=14;strokeWidth=2;" vertex="1" parent="1">
          <mxGeometry x="1315.5" y="1022" width="171.5" height="51" as="geometry" />
        </mxCell>
        <mxCell id="WP6hprnHiG_sowA_D06u-31" value="【七无】选项默认勾选，并且不可取消" style="rounded=1;whiteSpace=wrap;html=1;absoluteArcSize=1;arcSize=14;strokeWidth=2;" vertex="1" parent="1">
          <mxGeometry x="1314.5" y="879" width="173.5" height="53" as="geometry" />
        </mxCell>
        <mxCell id="WP6hprnHiG_sowA_D06u-32" value="Yes" style="rounded=0;whiteSpace=wrap;html=1;strokeWidth=0;strokeColor=none;" vertex="1" parent="1">
          <mxGeometry x="1257" y="874" width="52" height="30" as="geometry" />
        </mxCell>
        <mxCell id="WP6hprnHiG_sowA_D06u-33" value="No" style="rounded=0;whiteSpace=wrap;html=1;strokeWidth=0;strokeColor=none;" vertex="1" parent="1">
          <mxGeometry x="1257" y="1053" width="52" height="30" as="geometry" />
        </mxCell>
        <mxCell id="WP6hprnHiG_sowA_D06u-34" value="是否为“订金找货模式”" style="rounded=1;whiteSpace=wrap;html=1;strokeWidth=1;fillColor=#dae8fc;strokeColor=#6c8ebf;" vertex="1" parent="1">
          <mxGeometry x="1013" y="218" width="120" height="45" as="geometry" />
        </mxCell>
        <mxCell id="WP6hprnHiG_sowA_D06u-35" value="" style="shape=curlyBracket;whiteSpace=wrap;html=1;rounded=1;strokeWidth=1;" vertex="1" parent="1">
          <mxGeometry x="1152" y="181" width="20" height="120" as="geometry" />
        </mxCell>
        <mxCell id="WP6hprnHiG_sowA_D06u-37" value="【七无】选项不可勾选" style="rounded=1;whiteSpace=wrap;html=1;strokeWidth=1;fillColor=#dae8fc;strokeColor=#6c8ebf;" vertex="1" parent="1">
          <mxGeometry x="1181" y="153" width="126" height="45" as="geometry" />
        </mxCell>
        <mxCell id="WP6hprnHiG_sowA_D06u-38" value="【七无】选项根据是否为 “云闪购”用户决定是否可以勾选" style="rounded=1;whiteSpace=wrap;html=1;strokeWidth=1;fillColor=#dae8fc;strokeColor=#6c8ebf;" vertex="1" parent="1">
          <mxGeometry x="1181.5" y="272" width="128.5" height="56" as="geometry" />
        </mxCell>
        <mxCell id="WP6hprnHiG_sowA_D06u-39" value="Yes" style="rounded=0;whiteSpace=wrap;html=1;strokeWidth=0;strokeColor=none;" vertex="1" parent="1">
          <mxGeometry x="1127" y="148" width="52" height="30" as="geometry" />
        </mxCell>
        <mxCell id="WP6hprnHiG_sowA_D06u-40" value="No" style="rounded=0;whiteSpace=wrap;html=1;strokeWidth=0;strokeColor=none;" vertex="1" parent="1">
          <mxGeometry x="1128" y="303" width="52" height="30" as="geometry" />
        </mxCell>
      </root>
    </mxGraphModel>
  </diagram>
</mxfile>
